<mxfile host="Electron" modified="2024-08-29T12:46:33.850Z" agent="Mozilla/5.0 (X11; Linux x86_64) AppleWebKit/537.36 (KHTML, like Gecko) draw.io/24.6.4 Chrome/124.0.6367.207 Electron/30.0.6 Safari/537.36" etag="i8OnIysWtecGxUJ7PEQQ" version="24.6.4" type="device">
  <diagram name="Page-1" id="K_DlDfx8uDlybS5ipuHb">
    <mxGraphModel dx="1185" dy="679" grid="1" gridSize="10" guides="1" tooltips="1" connect="1" arrows="1" fold="1" page="1" pageScale="1" pageWidth="850" pageHeight="1100" math="0" shadow="0">
      <root>
        <mxCell id="0" />
        <mxCell id="1" parent="0" />
        <mxCell id="HcXqM1s9n6oKH7f4-UtA-1" value="&lt;b&gt;&lt;font color=&quot;#009900&quot;&gt;User1&lt;/font&gt;&lt;/b&gt;" style="shape=umlActor;verticalLabelPosition=bottom;verticalAlign=top;html=1;outlineConnect=0;fillColor=#60a917;fontColor=#ffffff;strokeColor=#2D7600;" vertex="1" parent="1">
          <mxGeometry x="130" y="240" width="30" height="60" as="geometry" />
        </mxCell>
        <mxCell id="HcXqM1s9n6oKH7f4-UtA-2" value="&lt;b&gt;&lt;font color=&quot;#cc0066&quot;&gt;User2&lt;/font&gt;&lt;/b&gt;" style="shape=umlActor;verticalLabelPosition=bottom;verticalAlign=top;html=1;outlineConnect=0;fillColor=#d80073;fontColor=#ffffff;strokeColor=#A50040;" vertex="1" parent="1">
          <mxGeometry x="370" y="240" width="30" height="60" as="geometry" />
        </mxCell>
        <mxCell id="HcXqM1s9n6oKH7f4-UtA-3" value="&lt;b&gt;&lt;font color=&quot;#004c99&quot;&gt;Moderator&lt;/font&gt;&lt;/b&gt;" style="shape=umlActor;verticalLabelPosition=bottom;verticalAlign=top;html=1;outlineConnect=0;fillColor=#0050ef;fontColor=#ffffff;strokeColor=#001DBC;" vertex="1" parent="1">
          <mxGeometry x="250" y="410" width="30" height="60" as="geometry" />
        </mxCell>
        <mxCell id="HcXqM1s9n6oKH7f4-UtA-4" value="LLM instance" style="shape=trapezoid;perimeter=trapezoidPerimeter;whiteSpace=wrap;html=1;fixedSize=1;" vertex="1" parent="1">
          <mxGeometry x="205" y="540" width="120" height="60" as="geometry" />
        </mxCell>
        <mxCell id="HcXqM1s9n6oKH7f4-UtA-5" value="" style="endArrow=none;dashed=1;html=1;rounded=0;" edge="1" parent="1" source="HcXqM1s9n6oKH7f4-UtA-1" target="HcXqM1s9n6oKH7f4-UtA-4">
          <mxGeometry width="50" height="50" relative="1" as="geometry">
            <mxPoint x="370" y="520" as="sourcePoint" />
            <mxPoint x="420" y="470" as="targetPoint" />
          </mxGeometry>
        </mxCell>
        <mxCell id="HcXqM1s9n6oKH7f4-UtA-6" value="" style="endArrow=none;dashed=1;html=1;rounded=0;" edge="1" parent="1" source="HcXqM1s9n6oKH7f4-UtA-3" target="HcXqM1s9n6oKH7f4-UtA-4">
          <mxGeometry width="50" height="50" relative="1" as="geometry">
            <mxPoint x="167" y="310" as="sourcePoint" />
            <mxPoint x="263" y="550" as="targetPoint" />
          </mxGeometry>
        </mxCell>
        <mxCell id="HcXqM1s9n6oKH7f4-UtA-7" value="" style="endArrow=none;dashed=1;html=1;rounded=0;" edge="1" parent="1" source="HcXqM1s9n6oKH7f4-UtA-2" target="HcXqM1s9n6oKH7f4-UtA-4">
          <mxGeometry width="50" height="50" relative="1" as="geometry">
            <mxPoint x="177" y="320" as="sourcePoint" />
            <mxPoint x="273" y="560" as="targetPoint" />
          </mxGeometry>
        </mxCell>
        <mxCell id="HcXqM1s9n6oKH7f4-UtA-8" value="" style="endArrow=classic;html=1;rounded=0;exitX=0.75;exitY=0.1;exitDx=0;exitDy=0;exitPerimeter=0;entryX=0.25;entryY=0.1;entryDx=0;entryDy=0;entryPerimeter=0;fillColor=#60a917;strokeColor=#2D7600;" edge="1" parent="1" source="HcXqM1s9n6oKH7f4-UtA-1" target="HcXqM1s9n6oKH7f4-UtA-2">
          <mxGeometry width="50" height="50" relative="1" as="geometry">
            <mxPoint x="420" y="390" as="sourcePoint" />
            <mxPoint x="470" y="340" as="targetPoint" />
            <Array as="points">
              <mxPoint x="270" y="150" />
            </Array>
          </mxGeometry>
        </mxCell>
        <mxCell id="HcXqM1s9n6oKH7f4-UtA-11" value="responds to" style="edgeLabel;html=1;align=center;verticalAlign=middle;resizable=0;points=[];" vertex="1" connectable="0" parent="HcXqM1s9n6oKH7f4-UtA-8">
          <mxGeometry x="-0.0089" y="1" relative="1" as="geometry">
            <mxPoint as="offset" />
          </mxGeometry>
        </mxCell>
        <mxCell id="HcXqM1s9n6oKH7f4-UtA-9" value="" style="endArrow=classic;html=1;rounded=0;exitX=0;exitY=1;exitDx=0;exitDy=0;exitPerimeter=0;entryX=1;entryY=1;entryDx=0;entryDy=0;entryPerimeter=0;fillColor=#d80073;strokeColor=#A50040;" edge="1" parent="1" source="HcXqM1s9n6oKH7f4-UtA-2" target="HcXqM1s9n6oKH7f4-UtA-1">
          <mxGeometry width="50" height="50" relative="1" as="geometry">
            <mxPoint x="420" y="390" as="sourcePoint" />
            <mxPoint x="470" y="340" as="targetPoint" />
            <Array as="points">
              <mxPoint x="260" y="370" />
            </Array>
          </mxGeometry>
        </mxCell>
        <mxCell id="HcXqM1s9n6oKH7f4-UtA-12" value="responds to" style="edgeLabel;html=1;align=center;verticalAlign=middle;resizable=0;points=[];" vertex="1" connectable="0" parent="HcXqM1s9n6oKH7f4-UtA-9">
          <mxGeometry x="0.059" y="2" relative="1" as="geometry">
            <mxPoint as="offset" />
          </mxGeometry>
        </mxCell>
        <mxCell id="HcXqM1s9n6oKH7f4-UtA-16" value="User1&#39;s turn" style="text;html=1;align=center;verticalAlign=middle;whiteSpace=wrap;rounded=0;fillColor=#60a917;fontColor=#ffffff;strokeColor=#2D7600;" vertex="1" parent="1">
          <mxGeometry x="227.5" y="110" width="75" height="30" as="geometry" />
        </mxCell>
        <mxCell id="HcXqM1s9n6oKH7f4-UtA-17" value="User2&#39;s turn" style="text;html=1;align=center;verticalAlign=middle;whiteSpace=wrap;rounded=0;fillColor=#d80073;fontColor=#ffffff;strokeColor=#A50040;" vertex="1" parent="1">
          <mxGeometry x="227.5" y="310" width="75" height="30" as="geometry" />
        </mxCell>
        <mxCell id="HcXqM1s9n6oKH7f4-UtA-18" value="" style="curved=1;endArrow=classic;html=1;rounded=0;fillColor=#0050ef;strokeColor=#001DBC;" edge="1" parent="1" source="HcXqM1s9n6oKH7f4-UtA-3">
          <mxGeometry width="50" height="50" relative="1" as="geometry">
            <mxPoint x="420" y="340" as="sourcePoint" />
            <mxPoint x="180" y="310" as="targetPoint" />
            <Array as="points">
              <mxPoint x="120" y="480" />
              <mxPoint x="60" y="440" />
            </Array>
          </mxGeometry>
        </mxCell>
        <mxCell id="HcXqM1s9n6oKH7f4-UtA-19" value="Intervenes" style="edgeLabel;html=1;align=center;verticalAlign=middle;resizable=0;points=[];" vertex="1" connectable="0" parent="HcXqM1s9n6oKH7f4-UtA-18">
          <mxGeometry x="-0.22" relative="1" as="geometry">
            <mxPoint as="offset" />
          </mxGeometry>
        </mxCell>
        <mxCell id="HcXqM1s9n6oKH7f4-UtA-20" value="" style="curved=1;endArrow=classic;html=1;rounded=0;fillColor=#0050ef;strokeColor=#001DBC;" edge="1" parent="1" source="HcXqM1s9n6oKH7f4-UtA-3">
          <mxGeometry width="50" height="50" relative="1" as="geometry">
            <mxPoint x="260" y="454" as="sourcePoint" />
            <mxPoint x="340" y="210" as="targetPoint" />
            <Array as="points">
              <mxPoint x="470" y="350" />
              <mxPoint x="530" y="200" />
            </Array>
          </mxGeometry>
        </mxCell>
        <mxCell id="HcXqM1s9n6oKH7f4-UtA-21" value="Intervenes" style="edgeLabel;html=1;align=center;verticalAlign=middle;resizable=0;points=[];" vertex="1" connectable="0" parent="HcXqM1s9n6oKH7f4-UtA-20">
          <mxGeometry x="-0.22" relative="1" as="geometry">
            <mxPoint as="offset" />
          </mxGeometry>
        </mxCell>
      </root>
    </mxGraphModel>
  </diagram>
</mxfile>
